%TF.GenerationSoftware,KiCad,Pcbnew,(6.0.0)*%
%TF.CreationDate,2022-04-20T12:25:39-04:00*%
%TF.ProjectId,7_seg,375f7365-672e-46b6-9963-61645f706362,rev?*%
%TF.SameCoordinates,Original*%
%TF.FileFunction,Legend,Top*%
%TF.FilePolarity,Positive*%
%FSLAX46Y46*%
G04 Gerber Fmt 4.6, Leading zero omitted, Abs format (unit mm)*
G04 Created by KiCad (PCBNEW (6.0.0)) date 2022-04-20 12:25:39*
%MOMM*%
%LPD*%
G01*
G04 APERTURE LIST*
%ADD10C,0.150000*%
%ADD11C,0.100000*%
%ADD12C,0.200000*%
G04 APERTURE END LIST*
D10*
X115641428Y-76763714D02*
X115641428Y-77097047D01*
X115117619Y-77239904D02*
X115117619Y-76763714D01*
X116117619Y-76763714D01*
X116117619Y-77239904D01*
X115117619Y-77668476D02*
X116117619Y-77668476D01*
X115117619Y-78239904D01*
X116117619Y-78239904D01*
X116022380Y-78668476D02*
X116070000Y-78716095D01*
X116117619Y-78811333D01*
X116117619Y-79049428D01*
X116070000Y-79144666D01*
X116022380Y-79192285D01*
X115927142Y-79239904D01*
X115831904Y-79239904D01*
X115689047Y-79192285D01*
X115117619Y-78620857D01*
X115117619Y-79239904D01*
X118181428Y-76763714D02*
X118181428Y-77097047D01*
X117657619Y-77239904D02*
X117657619Y-76763714D01*
X118657619Y-76763714D01*
X118657619Y-77239904D01*
X117657619Y-77668476D02*
X118657619Y-77668476D01*
X117657619Y-78239904D01*
X118657619Y-78239904D01*
X117657619Y-79239904D02*
X117657619Y-78668476D01*
X117657619Y-78954190D02*
X118657619Y-78954190D01*
X118514761Y-78858952D01*
X118419523Y-78763714D01*
X118371904Y-78668476D01*
X120245238Y-76517714D02*
X120197619Y-76660571D01*
X120197619Y-76898666D01*
X120245238Y-76993904D01*
X120292857Y-77041523D01*
X120388095Y-77089142D01*
X120483333Y-77089142D01*
X120578571Y-77041523D01*
X120626190Y-76993904D01*
X120673809Y-76898666D01*
X120721428Y-76708190D01*
X120769047Y-76612952D01*
X120816666Y-76565333D01*
X120911904Y-76517714D01*
X121007142Y-76517714D01*
X121102380Y-76565333D01*
X121150000Y-76612952D01*
X121197619Y-76708190D01*
X121197619Y-76946285D01*
X121150000Y-77089142D01*
X120721428Y-77517714D02*
X120721428Y-77851047D01*
X120197619Y-77993904D02*
X120197619Y-77517714D01*
X121197619Y-77517714D01*
X121197619Y-77993904D01*
X121150000Y-78946285D02*
X121197619Y-78851047D01*
X121197619Y-78708190D01*
X121150000Y-78565333D01*
X121054761Y-78470095D01*
X120959523Y-78422476D01*
X120769047Y-78374857D01*
X120626190Y-78374857D01*
X120435714Y-78422476D01*
X120340476Y-78470095D01*
X120245238Y-78565333D01*
X120197619Y-78708190D01*
X120197619Y-78803428D01*
X120245238Y-78946285D01*
X120292857Y-78993904D01*
X120626190Y-78993904D01*
X120626190Y-78803428D01*
X121197619Y-79612952D02*
X121197619Y-79708190D01*
X121150000Y-79803428D01*
X121102380Y-79851047D01*
X121007142Y-79898666D01*
X120816666Y-79946285D01*
X120578571Y-79946285D01*
X120388095Y-79898666D01*
X120292857Y-79851047D01*
X120245238Y-79803428D01*
X120197619Y-79708190D01*
X120197619Y-79612952D01*
X120245238Y-79517714D01*
X120292857Y-79470095D01*
X120388095Y-79422476D01*
X120578571Y-79374857D01*
X120816666Y-79374857D01*
X121007142Y-79422476D01*
X121102380Y-79470095D01*
X121150000Y-79517714D01*
X121197619Y-79612952D01*
X122785238Y-76517714D02*
X122737619Y-76660571D01*
X122737619Y-76898666D01*
X122785238Y-76993904D01*
X122832857Y-77041523D01*
X122928095Y-77089142D01*
X123023333Y-77089142D01*
X123118571Y-77041523D01*
X123166190Y-76993904D01*
X123213809Y-76898666D01*
X123261428Y-76708190D01*
X123309047Y-76612952D01*
X123356666Y-76565333D01*
X123451904Y-76517714D01*
X123547142Y-76517714D01*
X123642380Y-76565333D01*
X123690000Y-76612952D01*
X123737619Y-76708190D01*
X123737619Y-76946285D01*
X123690000Y-77089142D01*
X123261428Y-77517714D02*
X123261428Y-77851047D01*
X122737619Y-77993904D02*
X122737619Y-77517714D01*
X123737619Y-77517714D01*
X123737619Y-77993904D01*
X123690000Y-78946285D02*
X123737619Y-78851047D01*
X123737619Y-78708190D01*
X123690000Y-78565333D01*
X123594761Y-78470095D01*
X123499523Y-78422476D01*
X123309047Y-78374857D01*
X123166190Y-78374857D01*
X122975714Y-78422476D01*
X122880476Y-78470095D01*
X122785238Y-78565333D01*
X122737619Y-78708190D01*
X122737619Y-78803428D01*
X122785238Y-78946285D01*
X122832857Y-78993904D01*
X123166190Y-78993904D01*
X123166190Y-78803428D01*
X122737619Y-79946285D02*
X122737619Y-79374857D01*
X122737619Y-79660571D02*
X123737619Y-79660571D01*
X123594761Y-79565333D01*
X123499523Y-79470095D01*
X123451904Y-79374857D01*
X125325238Y-76517714D02*
X125277619Y-76660571D01*
X125277619Y-76898666D01*
X125325238Y-76993904D01*
X125372857Y-77041523D01*
X125468095Y-77089142D01*
X125563333Y-77089142D01*
X125658571Y-77041523D01*
X125706190Y-76993904D01*
X125753809Y-76898666D01*
X125801428Y-76708190D01*
X125849047Y-76612952D01*
X125896666Y-76565333D01*
X125991904Y-76517714D01*
X126087142Y-76517714D01*
X126182380Y-76565333D01*
X126230000Y-76612952D01*
X126277619Y-76708190D01*
X126277619Y-76946285D01*
X126230000Y-77089142D01*
X125801428Y-77517714D02*
X125801428Y-77851047D01*
X125277619Y-77993904D02*
X125277619Y-77517714D01*
X126277619Y-77517714D01*
X126277619Y-77993904D01*
X126230000Y-78946285D02*
X126277619Y-78851047D01*
X126277619Y-78708190D01*
X126230000Y-78565333D01*
X126134761Y-78470095D01*
X126039523Y-78422476D01*
X125849047Y-78374857D01*
X125706190Y-78374857D01*
X125515714Y-78422476D01*
X125420476Y-78470095D01*
X125325238Y-78565333D01*
X125277619Y-78708190D01*
X125277619Y-78803428D01*
X125325238Y-78946285D01*
X125372857Y-78993904D01*
X125706190Y-78993904D01*
X125706190Y-78803428D01*
X126182380Y-79374857D02*
X126230000Y-79422476D01*
X126277619Y-79517714D01*
X126277619Y-79755809D01*
X126230000Y-79851047D01*
X126182380Y-79898666D01*
X126087142Y-79946285D01*
X125991904Y-79946285D01*
X125849047Y-79898666D01*
X125277619Y-79327238D01*
X125277619Y-79946285D01*
X128817619Y-76644666D02*
X127817619Y-76978000D01*
X128817619Y-77311333D01*
X127912857Y-78216095D02*
X127865238Y-78168476D01*
X127817619Y-78025619D01*
X127817619Y-77930380D01*
X127865238Y-77787523D01*
X127960476Y-77692285D01*
X128055714Y-77644666D01*
X128246190Y-77597047D01*
X128389047Y-77597047D01*
X128579523Y-77644666D01*
X128674761Y-77692285D01*
X128770000Y-77787523D01*
X128817619Y-77930380D01*
X128817619Y-78025619D01*
X128770000Y-78168476D01*
X128722380Y-78216095D01*
X127912857Y-79216095D02*
X127865238Y-79168476D01*
X127817619Y-79025619D01*
X127817619Y-78930380D01*
X127865238Y-78787523D01*
X127960476Y-78692285D01*
X128055714Y-78644666D01*
X128246190Y-78597047D01*
X128389047Y-78597047D01*
X128579523Y-78644666D01*
X128674761Y-78692285D01*
X128770000Y-78787523D01*
X128817619Y-78930380D01*
X128817619Y-79025619D01*
X128770000Y-79168476D01*
X128722380Y-79216095D01*
X131310000Y-77216095D02*
X131357619Y-77120857D01*
X131357619Y-76978000D01*
X131310000Y-76835142D01*
X131214761Y-76739904D01*
X131119523Y-76692285D01*
X130929047Y-76644666D01*
X130786190Y-76644666D01*
X130595714Y-76692285D01*
X130500476Y-76739904D01*
X130405238Y-76835142D01*
X130357619Y-76978000D01*
X130357619Y-77073238D01*
X130405238Y-77216095D01*
X130452857Y-77263714D01*
X130786190Y-77263714D01*
X130786190Y-77073238D01*
X130357619Y-77692285D02*
X131357619Y-77692285D01*
X130357619Y-78263714D01*
X131357619Y-78263714D01*
X130357619Y-78739904D02*
X131357619Y-78739904D01*
X131357619Y-78978000D01*
X131310000Y-79120857D01*
X131214761Y-79216095D01*
X131119523Y-79263714D01*
X130929047Y-79311333D01*
X130786190Y-79311333D01*
X130595714Y-79263714D01*
X130500476Y-79216095D01*
X130405238Y-79120857D01*
X130357619Y-78978000D01*
X130357619Y-78739904D01*
D11*
%TO.C,DS2*%
X124820000Y-83630000D02*
X124820000Y-91630000D01*
X131720000Y-83630000D02*
X131720000Y-91630000D01*
D12*
X125270000Y-94630000D02*
X125270000Y-94630000D01*
X125170000Y-94630000D02*
X125170000Y-94630000D01*
X125270000Y-94630000D02*
G75*
G03*
X125170000Y-94630000I-50000J0D01*
G01*
X125170000Y-94630000D02*
G75*
G03*
X125270000Y-94630000I50000J0D01*
G01*
%TO.C,DS1*%
X115010000Y-94630000D02*
G75*
G03*
X115110000Y-94630000I50000J0D01*
G01*
X115110000Y-94630000D02*
G75*
G03*
X115010000Y-94630000I-50000J0D01*
G01*
X115010000Y-94630000D02*
X115010000Y-94630000D01*
X115110000Y-94630000D02*
X115110000Y-94630000D01*
D11*
X121560000Y-83630000D02*
X121560000Y-91630000D01*
X114660000Y-83630000D02*
X114660000Y-91630000D01*
%TD*%
M02*
