M48
; DRILL file {KiCad (6.0.0)} date Wed Apr 20 12:25:40 2022
; FORMAT={-:-/ absolute / inch / decimal}
; #@! TF.CreationDate,2022-04-20T12:25:40-04:00
; #@! TF.GenerationSoftware,Kicad,Pcbnew,(6.0.0)
; #@! TF.FileFunction,Plated,1,4,PTH
FMAT,2
INCH
; #@! TA.AperFunction,Plated,PTH,ViaDrill
T1C0.0079
; #@! TA.AperFunction,Plated,PTH,ComponentDrill
T2C0.0394
%
G90
G05
T1
X4.55Y-3.4
X4.566Y-3.482
X4.572Y-3.034
X4.58Y-3.35
X4.6Y-3.322
X4.6165Y-3.542
X4.63Y-3.728
X4.6343Y-3.014
X4.6362Y-3.356
X4.65Y-3.15
X4.654Y-3.534
X4.66Y-3.356
X4.7Y-3.35
X4.726Y-3.57
X4.74Y-3.34
X4.74Y-3.526
X4.746Y-3.548
X4.752Y-3.486
X4.79Y-3.468
X4.854Y-3.17
X4.8803Y-3.322
X4.896Y-3.258
X4.936Y-3.164
X4.948Y-3.374
X4.964Y-3.52
X4.988Y-3.1227
X4.992Y-3.326
X5.018Y-3.338
X5.034Y-3.726
X5.038Y-3.178
X5.038Y-3.354
X5.044Y-3.538
X5.06Y-3.36
X5.066Y-3.548
X5.102Y-3.35
X5.1177Y-3.4
X5.124Y-3.538
X5.126Y-3.48
X5.128Y-3.328
X5.132Y-3.568
X5.142Y-3.498
T2
X4.55Y-2.95
X4.65Y-2.95
X4.75Y-2.95
X4.85Y-2.95
X4.95Y-2.95
X5.05Y-2.95
X5.15Y-2.95
T0
M30
