%TF.GenerationSoftware,KiCad,Pcbnew,(6.0.0)*%
%TF.CreationDate,2022-04-20T12:25:39-04:00*%
%TF.ProjectId,7_seg,375f7365-672e-46b6-9963-61645f706362,rev?*%
%TF.SameCoordinates,Original*%
%TF.FileFunction,Copper,L2,Inr*%
%TF.FilePolarity,Positive*%
%FSLAX46Y46*%
G04 Gerber Fmt 4.6, Leading zero omitted, Abs format (unit mm)*
G04 Created by KiCad (PCBNEW (6.0.0)) date 2022-04-20 12:25:39*
%MOMM*%
%LPD*%
G01*
G04 APERTURE LIST*
%TA.AperFunction,ComponentPad*%
%ADD10O,1.700000X1.700000*%
%TD*%
%TA.AperFunction,ComponentPad*%
%ADD11R,1.700000X1.700000*%
%TD*%
%TA.AperFunction,ViaPad*%
%ADD12C,0.400000*%
%TD*%
%TA.AperFunction,Conductor*%
%ADD13C,0.100000*%
%TD*%
G04 APERTURE END LIST*
D10*
%TO.N,GND*%
%TO.C,J1*%
X130810000Y-74930000D03*
%TO.N,VCC*%
X128270000Y-74930000D03*
%TO.N,SEG_IN2*%
X125730000Y-74930000D03*
%TO.N,SEG_IN1*%
X123190000Y-74930000D03*
%TO.N,SEG_IN0*%
X120650000Y-74930000D03*
%TO.N,SEG_IN1_ENABLE*%
X118110000Y-74930000D03*
D11*
%TO.N,SEG_IN2_ENABLE*%
X115570000Y-74930000D03*
%TD*%
D12*
%TO.N,SEG_IN2*%
X120548400Y-90119200D03*
%TO.N,GND*%
X128676400Y-90119200D03*
X126085600Y-89408000D03*
X118211600Y-89763600D03*
X115976400Y-88442800D03*
%TO.N,SEG_E*%
X123958900Y-84378800D03*
%TO.N,SEG_D*%
X129989502Y-86360000D03*
%TO.N,SEG_IN0*%
X130200400Y-88392000D03*
%TO.N,SEG_IN1*%
X130606800Y-88849200D03*
%TO.N,SEG_F*%
X126695200Y-79316400D03*
X117710500Y-76555600D03*
%TO.N,SEG_G*%
X125374400Y-80365600D03*
X116128800Y-77063600D03*
%TO.N,SEG_IN2*%
X130149600Y-89865200D03*
%TO.N,SEG_IN1*%
X120396000Y-89560400D03*
X123291600Y-80518000D03*
%TO.N,SEG_IN0*%
X120700800Y-88544400D03*
X124358400Y-82753200D03*
X121666000Y-88087200D03*
%TO.N,SEG_IN1_ENABLE*%
X128117600Y-89865200D03*
%TO.N,SEG_IN2_ENABLE*%
X117259500Y-89966800D03*
%TO.N,SEG_B*%
X130251200Y-84531200D03*
%TO.N,SEG_A*%
X129590800Y-85090000D03*
%TO.N,Net-(DS2-Pad8)*%
X127965200Y-80721200D03*
%TO.N,SEG_F*%
X126796800Y-84480400D03*
%TO.N,SEG_G*%
X125679200Y-85699600D03*
%TO.N,SEG_DP*%
X130352800Y-90627200D03*
%TO.N,SEG_C*%
X128524000Y-85344000D03*
%TO.N,Net-(DS2-Pad3)*%
X127863600Y-94640400D03*
%TO.N,SEG_D*%
X127965200Y-85191600D03*
%TO.N,SEG_E*%
X127457200Y-84785200D03*
%TO.N,SEG_DP*%
X120040400Y-90678000D03*
%TO.N,SEG_C*%
X118364000Y-85242400D03*
%TO.N,Net-(DS1-Pad3)*%
X117602000Y-94691200D03*
%TO.N,SEG_D*%
X117759500Y-85242400D03*
%TO.N,SEG_E*%
X116840000Y-84379502D03*
%TO.N,SEG_B*%
X120396000Y-84836000D03*
%TO.N,SEG_A*%
X119380000Y-85090000D03*
%TO.N,Net-(DS1-Pad8)*%
X118110000Y-80010000D03*
%TO.N,SEG_G*%
X115570000Y-86360000D03*
%TO.N,SEG_F*%
X116332000Y-85090000D03*
%TD*%
D13*
%TO.N,SEG_IN0*%
X120650000Y-79044800D02*
X124358400Y-82753200D01*
X120650000Y-74930000D02*
X120650000Y-79044800D01*
%TO.N,SEG_IN1_ENABLE*%
X128117600Y-87172800D02*
X128117600Y-89865200D01*
X118110000Y-77165200D02*
X127152400Y-86207600D01*
X127152400Y-86207600D02*
X128117600Y-87172800D01*
X118110000Y-74930000D02*
X118110000Y-77165200D01*
%TO.N,SEG_IN2_ENABLE*%
X117259500Y-87439900D02*
X117259500Y-89966800D01*
X116992400Y-87172800D02*
X117259500Y-87439900D01*
X115570000Y-85750400D02*
X116992400Y-87172800D01*
X115570000Y-74930000D02*
X115570000Y-85750400D01*
%TD*%
%TA.AperFunction,Conductor*%
%TO.N,GND*%
G36*
X129930064Y-73680002D02*
G01*
X129976557Y-73733658D01*
X129986661Y-73803932D01*
X129957167Y-73868512D01*
X129937596Y-73886760D01*
X129909433Y-73907905D01*
X129901726Y-73914748D01*
X129754590Y-74068717D01*
X129748104Y-74076727D01*
X129628098Y-74252649D01*
X129623000Y-74261623D01*
X129533338Y-74454783D01*
X129529776Y-74464467D01*
X129476004Y-74658358D01*
X129438525Y-74718655D01*
X129374396Y-74749118D01*
X129303978Y-74740074D01*
X129249628Y-74694395D01*
X129233965Y-74661102D01*
X129201266Y-74552796D01*
X129201265Y-74552793D01*
X129199484Y-74546894D01*
X129107370Y-74373653D01*
X128983361Y-74221602D01*
X128832180Y-74096535D01*
X128659585Y-74003213D01*
X128557124Y-73971496D01*
X128478039Y-73947015D01*
X128478036Y-73947014D01*
X128472152Y-73945193D01*
X128466027Y-73944549D01*
X128466026Y-73944549D01*
X128283147Y-73925327D01*
X128283146Y-73925327D01*
X128277019Y-73924683D01*
X128154733Y-73935812D01*
X128087759Y-73941907D01*
X128087758Y-73941907D01*
X128081618Y-73942466D01*
X128075704Y-73944207D01*
X128075702Y-73944207D01*
X128006410Y-73964601D01*
X127893393Y-73997864D01*
X127887928Y-74000721D01*
X127724972Y-74085912D01*
X127724968Y-74085915D01*
X127719512Y-74088767D01*
X127714712Y-74092627D01*
X127714711Y-74092627D01*
X127701902Y-74102926D01*
X127566600Y-74211711D01*
X127440480Y-74362016D01*
X127437516Y-74367408D01*
X127437513Y-74367412D01*
X127389481Y-74454783D01*
X127345956Y-74533954D01*
X127286628Y-74720978D01*
X127264757Y-74915963D01*
X127281175Y-75111483D01*
X127335258Y-75300091D01*
X127338076Y-75305574D01*
X127422123Y-75469113D01*
X127422126Y-75469117D01*
X127424944Y-75474601D01*
X127546818Y-75628369D01*
X127551511Y-75632363D01*
X127551512Y-75632364D01*
X127676456Y-75738699D01*
X127696238Y-75755535D01*
X127701616Y-75758541D01*
X127701618Y-75758542D01*
X127737932Y-75778837D01*
X127867513Y-75851257D01*
X128054118Y-75911889D01*
X128248946Y-75935121D01*
X128255081Y-75934649D01*
X128255083Y-75934649D01*
X128438434Y-75920541D01*
X128438438Y-75920540D01*
X128444576Y-75920068D01*
X128633556Y-75867303D01*
X128808689Y-75778837D01*
X128838515Y-75755535D01*
X128958453Y-75661829D01*
X128963303Y-75658040D01*
X128993084Y-75623539D01*
X129087485Y-75514173D01*
X129087485Y-75514172D01*
X129091509Y-75509511D01*
X129188425Y-75338909D01*
X129237214Y-75192245D01*
X129277696Y-75133921D01*
X129343284Y-75106741D01*
X129413154Y-75119336D01*
X129465124Y-75167706D01*
X129479689Y-75204316D01*
X129508565Y-75332447D01*
X129511645Y-75342275D01*
X129591770Y-75539603D01*
X129596413Y-75548794D01*
X129707694Y-75730388D01*
X129713777Y-75738699D01*
X129853213Y-75899667D01*
X129860580Y-75906883D01*
X130024434Y-76042916D01*
X130032881Y-76048831D01*
X130216756Y-76156279D01*
X130226042Y-76160729D01*
X130425001Y-76236703D01*
X130434899Y-76239579D01*
X130538250Y-76260606D01*
X130552299Y-76259410D01*
X130556000Y-76249065D01*
X130556000Y-74802000D01*
X130576002Y-74733879D01*
X130629658Y-74687386D01*
X130682000Y-74676000D01*
X130938000Y-74676000D01*
X131006121Y-74696002D01*
X131052614Y-74749658D01*
X131064000Y-74802000D01*
X131064000Y-76248517D01*
X131068064Y-76262359D01*
X131081478Y-76264393D01*
X131088184Y-76263534D01*
X131098262Y-76261392D01*
X131302255Y-76200191D01*
X131311842Y-76196433D01*
X131503095Y-76102739D01*
X131511945Y-76097464D01*
X131685328Y-75973792D01*
X131693200Y-75967139D01*
X131844052Y-75816812D01*
X131850730Y-75808965D01*
X131975003Y-75636020D01*
X131980313Y-75627183D01*
X132074670Y-75436267D01*
X132078469Y-75426672D01*
X132138242Y-75229937D01*
X132177183Y-75170573D01*
X132242037Y-75141686D01*
X132312213Y-75152447D01*
X132365431Y-75199441D01*
X132384800Y-75266566D01*
X132384800Y-95174800D01*
X132364798Y-95242921D01*
X132311142Y-95289414D01*
X132258800Y-95300800D01*
X117722521Y-95300800D01*
X117654400Y-95280798D01*
X117607907Y-95227142D01*
X117602206Y-95187494D01*
X117601856Y-95212022D01*
X117562622Y-95271194D01*
X117497627Y-95299761D01*
X117481479Y-95300800D01*
X114172000Y-95300800D01*
X114103879Y-95280798D01*
X114057386Y-95227142D01*
X114046000Y-95174800D01*
X114046000Y-94691200D01*
X117226882Y-94691200D01*
X117245242Y-94807118D01*
X117249743Y-94815952D01*
X117249744Y-94815955D01*
X117268135Y-94852048D01*
X117298523Y-94911689D01*
X117381511Y-94994677D01*
X117435079Y-95021971D01*
X117477245Y-95043456D01*
X117477248Y-95043457D01*
X117486082Y-95047958D01*
X117501191Y-95050351D01*
X117565344Y-95080764D01*
X117602870Y-95141033D01*
X117602800Y-95145926D01*
X117627297Y-95092288D01*
X117687023Y-95053904D01*
X117702808Y-95050351D01*
X117717918Y-95047958D01*
X117726752Y-95043457D01*
X117726755Y-95043456D01*
X117768921Y-95021971D01*
X117822489Y-94994677D01*
X117905477Y-94911689D01*
X117935865Y-94852048D01*
X117954256Y-94815955D01*
X117954257Y-94815952D01*
X117958758Y-94807118D01*
X117977118Y-94691200D01*
X117969072Y-94640400D01*
X127488482Y-94640400D01*
X127506842Y-94756318D01*
X127511343Y-94765152D01*
X127511344Y-94765155D01*
X127527735Y-94797324D01*
X127560123Y-94860889D01*
X127643111Y-94943877D01*
X127696679Y-94971171D01*
X127738845Y-94992656D01*
X127738848Y-94992657D01*
X127747682Y-94997158D01*
X127863600Y-95015518D01*
X127979518Y-94997158D01*
X127988352Y-94992657D01*
X127988355Y-94992656D01*
X128030521Y-94971171D01*
X128084089Y-94943877D01*
X128167077Y-94860889D01*
X128199465Y-94797324D01*
X128215856Y-94765155D01*
X128215857Y-94765152D01*
X128220358Y-94756318D01*
X128238718Y-94640400D01*
X128220358Y-94524482D01*
X128215857Y-94515648D01*
X128215856Y-94515645D01*
X128189385Y-94463694D01*
X128167077Y-94419911D01*
X128084089Y-94336923D01*
X128030521Y-94309629D01*
X127988355Y-94288144D01*
X127988352Y-94288143D01*
X127979518Y-94283642D01*
X127863600Y-94265282D01*
X127747682Y-94283642D01*
X127738848Y-94288143D01*
X127738845Y-94288144D01*
X127696679Y-94309629D01*
X127643111Y-94336923D01*
X127560123Y-94419911D01*
X127537815Y-94463694D01*
X127511344Y-94515645D01*
X127511343Y-94515648D01*
X127506842Y-94524482D01*
X127488482Y-94640400D01*
X117969072Y-94640400D01*
X117958758Y-94575282D01*
X117954257Y-94566448D01*
X117954256Y-94566445D01*
X117928372Y-94515645D01*
X117905477Y-94470711D01*
X117822489Y-94387723D01*
X117768921Y-94360429D01*
X117726755Y-94338944D01*
X117726752Y-94338943D01*
X117717918Y-94334442D01*
X117602000Y-94316082D01*
X117486082Y-94334442D01*
X117477248Y-94338943D01*
X117477245Y-94338944D01*
X117435079Y-94360429D01*
X117381511Y-94387723D01*
X117298523Y-94470711D01*
X117275628Y-94515645D01*
X117249744Y-94566445D01*
X117249743Y-94566448D01*
X117245242Y-94575282D01*
X117226882Y-94691200D01*
X114046000Y-94691200D01*
X114046000Y-90678000D01*
X119665282Y-90678000D01*
X119683642Y-90793918D01*
X119688143Y-90802752D01*
X119688144Y-90802755D01*
X119706535Y-90838848D01*
X119736923Y-90898489D01*
X119819911Y-90981477D01*
X119873479Y-91008771D01*
X119915645Y-91030256D01*
X119915648Y-91030257D01*
X119924482Y-91034758D01*
X120040400Y-91053118D01*
X120156318Y-91034758D01*
X120165152Y-91030257D01*
X120165155Y-91030256D01*
X120207321Y-91008771D01*
X120260889Y-90981477D01*
X120343877Y-90898489D01*
X120374265Y-90838848D01*
X120392656Y-90802755D01*
X120392657Y-90802752D01*
X120397158Y-90793918D01*
X120415518Y-90678000D01*
X120409258Y-90638478D01*
X120418357Y-90568068D01*
X120464079Y-90513753D01*
X120533707Y-90492767D01*
X120538608Y-90492767D01*
X120548400Y-90494318D01*
X120664318Y-90475958D01*
X120673152Y-90471457D01*
X120673155Y-90471456D01*
X120715321Y-90449971D01*
X120768889Y-90422677D01*
X120851877Y-90339689D01*
X120896515Y-90252082D01*
X120900656Y-90243955D01*
X120900657Y-90243952D01*
X120905158Y-90235118D01*
X120923518Y-90119200D01*
X120905158Y-90003282D01*
X120900657Y-89994448D01*
X120900656Y-89994445D01*
X120879171Y-89952279D01*
X120851877Y-89898711D01*
X120775880Y-89822714D01*
X120741854Y-89760402D01*
X120746531Y-89695018D01*
X120745192Y-89694583D01*
X120748255Y-89685155D01*
X120752758Y-89676318D01*
X120771118Y-89560400D01*
X120752758Y-89444482D01*
X120748257Y-89435648D01*
X120748256Y-89435645D01*
X120726771Y-89393479D01*
X120699477Y-89339911D01*
X120616489Y-89256923D01*
X120562921Y-89229629D01*
X120520755Y-89208144D01*
X120520752Y-89208143D01*
X120511918Y-89203642D01*
X120396000Y-89185282D01*
X120280082Y-89203642D01*
X120271248Y-89208143D01*
X120271245Y-89208144D01*
X120229079Y-89229629D01*
X120175511Y-89256923D01*
X120092523Y-89339911D01*
X120065229Y-89393479D01*
X120043744Y-89435645D01*
X120043743Y-89435648D01*
X120039242Y-89444482D01*
X120020882Y-89560400D01*
X120039242Y-89676318D01*
X120043743Y-89685152D01*
X120043744Y-89685155D01*
X120048548Y-89694583D01*
X120092523Y-89780889D01*
X120168520Y-89856886D01*
X120202546Y-89919198D01*
X120197869Y-89984582D01*
X120199208Y-89985017D01*
X120196145Y-89994445D01*
X120191642Y-90003282D01*
X120173282Y-90119200D01*
X120174833Y-90128991D01*
X120179542Y-90158721D01*
X120170443Y-90229132D01*
X120124721Y-90283447D01*
X120055093Y-90304433D01*
X120050192Y-90304433D01*
X120040400Y-90302882D01*
X119924482Y-90321242D01*
X119915648Y-90325743D01*
X119915645Y-90325744D01*
X119874506Y-90346706D01*
X119819911Y-90374523D01*
X119736923Y-90457511D01*
X119718169Y-90494318D01*
X119688144Y-90553245D01*
X119688143Y-90553248D01*
X119683642Y-90562082D01*
X119665282Y-90678000D01*
X114046000Y-90678000D01*
X114046000Y-75794820D01*
X114569500Y-75794820D01*
X114578233Y-75838722D01*
X114585127Y-75849040D01*
X114585128Y-75849042D01*
X114598437Y-75868960D01*
X114611496Y-75888504D01*
X114621815Y-75895399D01*
X114650958Y-75914872D01*
X114650960Y-75914873D01*
X114661278Y-75921767D01*
X114705180Y-75930500D01*
X115243500Y-75930500D01*
X115311621Y-75950502D01*
X115358114Y-76004158D01*
X115369500Y-76056500D01*
X115369500Y-85714188D01*
X115369364Y-85716589D01*
X115365666Y-85727119D01*
X115367235Y-85741220D01*
X115367235Y-85741221D01*
X115368727Y-85754627D01*
X115369212Y-85763369D01*
X115369500Y-85765927D01*
X115369500Y-85773003D01*
X115371073Y-85779897D01*
X115371424Y-85783016D01*
X115372776Y-85791009D01*
X115375783Y-85818033D01*
X115382058Y-85828056D01*
X115384688Y-85839585D01*
X115393530Y-85850681D01*
X115393531Y-85850683D01*
X115401286Y-85860414D01*
X115428097Y-85926154D01*
X115415110Y-85995952D01*
X115366448Y-86047649D01*
X115359968Y-86051195D01*
X115349511Y-86056523D01*
X115266523Y-86139511D01*
X115239229Y-86193079D01*
X115217744Y-86235245D01*
X115217743Y-86235248D01*
X115213242Y-86244082D01*
X115194882Y-86360000D01*
X115213242Y-86475918D01*
X115217743Y-86484752D01*
X115217744Y-86484755D01*
X115228218Y-86505311D01*
X115266523Y-86580489D01*
X115349511Y-86663477D01*
X115403079Y-86690771D01*
X115445245Y-86712256D01*
X115445248Y-86712257D01*
X115454082Y-86716758D01*
X115570000Y-86735118D01*
X115685918Y-86716758D01*
X115694752Y-86712257D01*
X115694755Y-86712256D01*
X115736921Y-86690771D01*
X115790489Y-86663477D01*
X115873477Y-86580489D01*
X115877981Y-86571648D01*
X115883808Y-86563629D01*
X115885449Y-86564821D01*
X115925537Y-86522376D01*
X115994452Y-86505311D01*
X116061653Y-86528213D01*
X116078149Y-86542099D01*
X116834514Y-87298463D01*
X116834516Y-87298466D01*
X116943338Y-87407287D01*
X117022095Y-87486044D01*
X117056120Y-87548356D01*
X117059000Y-87575140D01*
X117059000Y-89591144D01*
X117038998Y-89659265D01*
X117022095Y-89680239D01*
X116956023Y-89746311D01*
X116938405Y-89780889D01*
X116907244Y-89842045D01*
X116907243Y-89842048D01*
X116902742Y-89850882D01*
X116884382Y-89966800D01*
X116902742Y-90082718D01*
X116907243Y-90091552D01*
X116907244Y-90091555D01*
X116928729Y-90133721D01*
X116956023Y-90187289D01*
X117039011Y-90270277D01*
X117092579Y-90297571D01*
X117134745Y-90319056D01*
X117134748Y-90319057D01*
X117143582Y-90323558D01*
X117259500Y-90341918D01*
X117375418Y-90323558D01*
X117384252Y-90319057D01*
X117384255Y-90319056D01*
X117426421Y-90297571D01*
X117479989Y-90270277D01*
X117562977Y-90187289D01*
X117590271Y-90133721D01*
X117611756Y-90091555D01*
X117611757Y-90091552D01*
X117616258Y-90082718D01*
X117634618Y-89966800D01*
X117616258Y-89850882D01*
X117611757Y-89842048D01*
X117611756Y-89842045D01*
X117580595Y-89780889D01*
X117562977Y-89746311D01*
X117496905Y-89680239D01*
X117462879Y-89617927D01*
X117460000Y-89591144D01*
X117460000Y-88544400D01*
X120325682Y-88544400D01*
X120344042Y-88660318D01*
X120348543Y-88669152D01*
X120348544Y-88669155D01*
X120358381Y-88688460D01*
X120397323Y-88764889D01*
X120480311Y-88847877D01*
X120533879Y-88875171D01*
X120576045Y-88896656D01*
X120576048Y-88896657D01*
X120584882Y-88901158D01*
X120700800Y-88919518D01*
X120816718Y-88901158D01*
X120825552Y-88896657D01*
X120825555Y-88896656D01*
X120867721Y-88875171D01*
X120921289Y-88847877D01*
X121004277Y-88764889D01*
X121043219Y-88688460D01*
X121053056Y-88669155D01*
X121053057Y-88669152D01*
X121057558Y-88660318D01*
X121075918Y-88544400D01*
X121057558Y-88428482D01*
X121053057Y-88419648D01*
X121053056Y-88419645D01*
X121031571Y-88377479D01*
X121004277Y-88323911D01*
X120921289Y-88240923D01*
X120867721Y-88213629D01*
X120825555Y-88192144D01*
X120825552Y-88192143D01*
X120816718Y-88187642D01*
X120700800Y-88169282D01*
X120584882Y-88187642D01*
X120576048Y-88192143D01*
X120576045Y-88192144D01*
X120533879Y-88213629D01*
X120480311Y-88240923D01*
X120397323Y-88323911D01*
X120370029Y-88377479D01*
X120348544Y-88419645D01*
X120348543Y-88419648D01*
X120344042Y-88428482D01*
X120325682Y-88544400D01*
X117460000Y-88544400D01*
X117460000Y-88087200D01*
X121290882Y-88087200D01*
X121309242Y-88203118D01*
X121313743Y-88211952D01*
X121313744Y-88211955D01*
X121328504Y-88240923D01*
X121362523Y-88307689D01*
X121445511Y-88390677D01*
X121499079Y-88417971D01*
X121541245Y-88439456D01*
X121541248Y-88439457D01*
X121550082Y-88443958D01*
X121666000Y-88462318D01*
X121781918Y-88443958D01*
X121790752Y-88439457D01*
X121790755Y-88439456D01*
X121832921Y-88417971D01*
X121886489Y-88390677D01*
X121969477Y-88307689D01*
X122003496Y-88240923D01*
X122018256Y-88211955D01*
X122018257Y-88211952D01*
X122022758Y-88203118D01*
X122041118Y-88087200D01*
X122022758Y-87971282D01*
X122018257Y-87962448D01*
X122018256Y-87962445D01*
X121996771Y-87920279D01*
X121969477Y-87866711D01*
X121886489Y-87783723D01*
X121832921Y-87756429D01*
X121790755Y-87734944D01*
X121790752Y-87734943D01*
X121781918Y-87730442D01*
X121666000Y-87712082D01*
X121550082Y-87730442D01*
X121541248Y-87734943D01*
X121541245Y-87734944D01*
X121499079Y-87756429D01*
X121445511Y-87783723D01*
X121362523Y-87866711D01*
X121335229Y-87920279D01*
X121313744Y-87962445D01*
X121313743Y-87962448D01*
X121309242Y-87971282D01*
X121290882Y-88087200D01*
X117460000Y-88087200D01*
X117460000Y-87476108D01*
X117460136Y-87473709D01*
X117463834Y-87463180D01*
X117460773Y-87435675D01*
X117460287Y-87426922D01*
X117460000Y-87424373D01*
X117460000Y-87417297D01*
X117458427Y-87410401D01*
X117458076Y-87407287D01*
X117456724Y-87399296D01*
X117455285Y-87386368D01*
X117453716Y-87372266D01*
X117447442Y-87362245D01*
X117444812Y-87350715D01*
X117427866Y-87329450D01*
X117423016Y-87322599D01*
X117421165Y-87320275D01*
X117417383Y-87314233D01*
X117412338Y-87309188D01*
X117410607Y-87307014D01*
X117404877Y-87300600D01*
X117396648Y-87290273D01*
X117396647Y-87290273D01*
X117387805Y-87279176D01*
X117377618Y-87274262D01*
X117375677Y-87272527D01*
X115807405Y-85704255D01*
X115773379Y-85641943D01*
X115770500Y-85615160D01*
X115770500Y-85328917D01*
X115790502Y-85260796D01*
X115844158Y-85214303D01*
X115914432Y-85204199D01*
X115979012Y-85233693D01*
X116008767Y-85271715D01*
X116028523Y-85310489D01*
X116111511Y-85393477D01*
X116148040Y-85412089D01*
X116207245Y-85442256D01*
X116207248Y-85442257D01*
X116216082Y-85446758D01*
X116332000Y-85465118D01*
X116447918Y-85446758D01*
X116456752Y-85442257D01*
X116456755Y-85442256D01*
X116515960Y-85412089D01*
X116552489Y-85393477D01*
X116635477Y-85310489D01*
X116662771Y-85256921D01*
X116670170Y-85242400D01*
X117384382Y-85242400D01*
X117402742Y-85358318D01*
X117407243Y-85367152D01*
X117407244Y-85367155D01*
X117420656Y-85393477D01*
X117456023Y-85462889D01*
X117539011Y-85545877D01*
X117588297Y-85570989D01*
X117634745Y-85594656D01*
X117634748Y-85594657D01*
X117643582Y-85599158D01*
X117759500Y-85617518D01*
X117875418Y-85599158D01*
X117884252Y-85594657D01*
X117884255Y-85594656D01*
X117930703Y-85570989D01*
X117979989Y-85545877D01*
X117987002Y-85538864D01*
X117987689Y-85538365D01*
X118054557Y-85514506D01*
X118123709Y-85530587D01*
X118135811Y-85538365D01*
X118136498Y-85538864D01*
X118143511Y-85545877D01*
X118192797Y-85570989D01*
X118239245Y-85594656D01*
X118239248Y-85594657D01*
X118248082Y-85599158D01*
X118364000Y-85617518D01*
X118479918Y-85599158D01*
X118488752Y-85594657D01*
X118488755Y-85594656D01*
X118535203Y-85570989D01*
X118584489Y-85545877D01*
X118667477Y-85462889D01*
X118702844Y-85393477D01*
X118716256Y-85367155D01*
X118716257Y-85367152D01*
X118720758Y-85358318D01*
X118739118Y-85242400D01*
X118720758Y-85126482D01*
X118716257Y-85117648D01*
X118716256Y-85117645D01*
X118702170Y-85090000D01*
X119004882Y-85090000D01*
X119023242Y-85205918D01*
X119027743Y-85214752D01*
X119027744Y-85214755D01*
X119049229Y-85256921D01*
X119076523Y-85310489D01*
X119159511Y-85393477D01*
X119196040Y-85412089D01*
X119255245Y-85442256D01*
X119255248Y-85442257D01*
X119264082Y-85446758D01*
X119380000Y-85465118D01*
X119495918Y-85446758D01*
X119504752Y-85442257D01*
X119504755Y-85442256D01*
X119563960Y-85412089D01*
X119600489Y-85393477D01*
X119683477Y-85310489D01*
X119710771Y-85256921D01*
X119732256Y-85214755D01*
X119732257Y-85214752D01*
X119736758Y-85205918D01*
X119755118Y-85090000D01*
X119736758Y-84974082D01*
X119732257Y-84965248D01*
X119732256Y-84965245D01*
X119702231Y-84906318D01*
X119683477Y-84869511D01*
X119649966Y-84836000D01*
X120020882Y-84836000D01*
X120039242Y-84951918D01*
X120043743Y-84960752D01*
X120043744Y-84960755D01*
X120050535Y-84974082D01*
X120092523Y-85056489D01*
X120175511Y-85139477D01*
X120221207Y-85162760D01*
X120271245Y-85188256D01*
X120271248Y-85188257D01*
X120280082Y-85192758D01*
X120396000Y-85211118D01*
X120511918Y-85192758D01*
X120520752Y-85188257D01*
X120520755Y-85188256D01*
X120570793Y-85162760D01*
X120616489Y-85139477D01*
X120699477Y-85056489D01*
X120741465Y-84974082D01*
X120748256Y-84960755D01*
X120748257Y-84960752D01*
X120752758Y-84951918D01*
X120771118Y-84836000D01*
X120752758Y-84720082D01*
X120748257Y-84711248D01*
X120748256Y-84711245D01*
X120710591Y-84637324D01*
X120699477Y-84615511D01*
X120616489Y-84532523D01*
X120561005Y-84504253D01*
X120520755Y-84483744D01*
X120520752Y-84483743D01*
X120511918Y-84479242D01*
X120396000Y-84460882D01*
X120280082Y-84479242D01*
X120271248Y-84483743D01*
X120271245Y-84483744D01*
X120230995Y-84504253D01*
X120175511Y-84532523D01*
X120092523Y-84615511D01*
X120081409Y-84637324D01*
X120043744Y-84711245D01*
X120043743Y-84711248D01*
X120039242Y-84720082D01*
X120020882Y-84836000D01*
X119649966Y-84836000D01*
X119600489Y-84786523D01*
X119537875Y-84754620D01*
X119504755Y-84737744D01*
X119504752Y-84737743D01*
X119495918Y-84733242D01*
X119380000Y-84714882D01*
X119264082Y-84733242D01*
X119255248Y-84737743D01*
X119255245Y-84737744D01*
X119222125Y-84754620D01*
X119159511Y-84786523D01*
X119076523Y-84869511D01*
X119057769Y-84906318D01*
X119027744Y-84965245D01*
X119027743Y-84965248D01*
X119023242Y-84974082D01*
X119004882Y-85090000D01*
X118702170Y-85090000D01*
X118685095Y-85056489D01*
X118667477Y-85021911D01*
X118584489Y-84938923D01*
X118524358Y-84908285D01*
X118488755Y-84890144D01*
X118488752Y-84890143D01*
X118479918Y-84885642D01*
X118364000Y-84867282D01*
X118248082Y-84885642D01*
X118239248Y-84890143D01*
X118239245Y-84890144D01*
X118203642Y-84908285D01*
X118143511Y-84938923D01*
X118136498Y-84945936D01*
X118135811Y-84946435D01*
X118068943Y-84970294D01*
X117999791Y-84954213D01*
X117987689Y-84946435D01*
X117987002Y-84945936D01*
X117979989Y-84938923D01*
X117919858Y-84908285D01*
X117884255Y-84890144D01*
X117884252Y-84890143D01*
X117875418Y-84885642D01*
X117759500Y-84867282D01*
X117643582Y-84885642D01*
X117634748Y-84890143D01*
X117634745Y-84890144D01*
X117599142Y-84908285D01*
X117539011Y-84938923D01*
X117456023Y-85021911D01*
X117438405Y-85056489D01*
X117407244Y-85117645D01*
X117407243Y-85117648D01*
X117402742Y-85126482D01*
X117384382Y-85242400D01*
X116670170Y-85242400D01*
X116684256Y-85214755D01*
X116684257Y-85214752D01*
X116688758Y-85205918D01*
X116707118Y-85090000D01*
X116688758Y-84974082D01*
X116666109Y-84929631D01*
X116653006Y-84859857D01*
X116679706Y-84794073D01*
X116737733Y-84753166D01*
X116798087Y-84747982D01*
X116830206Y-84753069D01*
X116830208Y-84753069D01*
X116840000Y-84754620D01*
X116955918Y-84736260D01*
X116964752Y-84731759D01*
X116964755Y-84731758D01*
X117025338Y-84700889D01*
X117060489Y-84682979D01*
X117143477Y-84599991D01*
X117177853Y-84532523D01*
X117192256Y-84504257D01*
X117192257Y-84504253D01*
X117196758Y-84495420D01*
X117215118Y-84379502D01*
X117215007Y-84378800D01*
X123583782Y-84378800D01*
X123602142Y-84494718D01*
X123606643Y-84503552D01*
X123606644Y-84503555D01*
X123628129Y-84545721D01*
X123655423Y-84599289D01*
X123738411Y-84682277D01*
X123774940Y-84700889D01*
X123834145Y-84731056D01*
X123834148Y-84731057D01*
X123842982Y-84735558D01*
X123958900Y-84753918D01*
X124074818Y-84735558D01*
X124083652Y-84731057D01*
X124083655Y-84731056D01*
X124142860Y-84700889D01*
X124179389Y-84682277D01*
X124262377Y-84599289D01*
X124289671Y-84545721D01*
X124311156Y-84503555D01*
X124311157Y-84503552D01*
X124315658Y-84494718D01*
X124334018Y-84378800D01*
X124315658Y-84262882D01*
X124311157Y-84254048D01*
X124311156Y-84254045D01*
X124275435Y-84183940D01*
X124262377Y-84158311D01*
X124179389Y-84075323D01*
X124125821Y-84048029D01*
X124083655Y-84026544D01*
X124083652Y-84026543D01*
X124074818Y-84022042D01*
X123958900Y-84003682D01*
X123842982Y-84022042D01*
X123834148Y-84026543D01*
X123834145Y-84026544D01*
X123791979Y-84048029D01*
X123738411Y-84075323D01*
X123655423Y-84158311D01*
X123642365Y-84183940D01*
X123606644Y-84254045D01*
X123606643Y-84254048D01*
X123602142Y-84262882D01*
X123583782Y-84378800D01*
X117215007Y-84378800D01*
X117196758Y-84263584D01*
X117192257Y-84254750D01*
X117192256Y-84254747D01*
X117170771Y-84212581D01*
X117143477Y-84159013D01*
X117060489Y-84076025D01*
X117006921Y-84048731D01*
X116964755Y-84027246D01*
X116964752Y-84027245D01*
X116955918Y-84022744D01*
X116840000Y-84004384D01*
X116724082Y-84022744D01*
X116715248Y-84027245D01*
X116715245Y-84027246D01*
X116673079Y-84048731D01*
X116619511Y-84076025D01*
X116536523Y-84159013D01*
X116509229Y-84212581D01*
X116487744Y-84254747D01*
X116487743Y-84254750D01*
X116483242Y-84263584D01*
X116464882Y-84379502D01*
X116483242Y-84495420D01*
X116505891Y-84539871D01*
X116518994Y-84609645D01*
X116492294Y-84675429D01*
X116434267Y-84716336D01*
X116373913Y-84721520D01*
X116341794Y-84716433D01*
X116341792Y-84716433D01*
X116332000Y-84714882D01*
X116216082Y-84733242D01*
X116207248Y-84737743D01*
X116207245Y-84737744D01*
X116174125Y-84754620D01*
X116111511Y-84786523D01*
X116028523Y-84869511D01*
X116013768Y-84898470D01*
X116008767Y-84908285D01*
X115960019Y-84959901D01*
X115891105Y-84976967D01*
X115823903Y-84954067D01*
X115779750Y-84898470D01*
X115770500Y-84851083D01*
X115770500Y-80010000D01*
X117734882Y-80010000D01*
X117753242Y-80125918D01*
X117757743Y-80134752D01*
X117757744Y-80134755D01*
X117763021Y-80145111D01*
X117806523Y-80230489D01*
X117889511Y-80313477D01*
X117943079Y-80340771D01*
X117985245Y-80362256D01*
X117985248Y-80362257D01*
X117994082Y-80366758D01*
X118110000Y-80385118D01*
X118225918Y-80366758D01*
X118234752Y-80362257D01*
X118234755Y-80362256D01*
X118276921Y-80340771D01*
X118330489Y-80313477D01*
X118413477Y-80230489D01*
X118456979Y-80145111D01*
X118462256Y-80134755D01*
X118462257Y-80134752D01*
X118466758Y-80125918D01*
X118485118Y-80010000D01*
X118466758Y-79894082D01*
X118462257Y-79885248D01*
X118462256Y-79885245D01*
X118440771Y-79843079D01*
X118413477Y-79789511D01*
X118330489Y-79706523D01*
X118265006Y-79673158D01*
X118234755Y-79657744D01*
X118234752Y-79657743D01*
X118225918Y-79653242D01*
X118110000Y-79634882D01*
X117994082Y-79653242D01*
X117985248Y-79657743D01*
X117985245Y-79657744D01*
X117954994Y-79673158D01*
X117889511Y-79706523D01*
X117806523Y-79789511D01*
X117779229Y-79843079D01*
X117757744Y-79885245D01*
X117757743Y-79885248D01*
X117753242Y-79894082D01*
X117734882Y-80010000D01*
X115770500Y-80010000D01*
X115770500Y-77502472D01*
X115790502Y-77434351D01*
X115844158Y-77387858D01*
X115914432Y-77377754D01*
X115953702Y-77390205D01*
X115979255Y-77403224D01*
X116012882Y-77420358D01*
X116128800Y-77438718D01*
X116244718Y-77420358D01*
X116253552Y-77415857D01*
X116253555Y-77415856D01*
X116303897Y-77390205D01*
X116349289Y-77367077D01*
X116432277Y-77284089D01*
X116465579Y-77218730D01*
X116481056Y-77188355D01*
X116481057Y-77188352D01*
X116485558Y-77179518D01*
X116503918Y-77063600D01*
X116485558Y-76947682D01*
X116481057Y-76938848D01*
X116481056Y-76938845D01*
X116459571Y-76896679D01*
X116432277Y-76843111D01*
X116349289Y-76760123D01*
X116295721Y-76732829D01*
X116253555Y-76711344D01*
X116253552Y-76711343D01*
X116244718Y-76706842D01*
X116128800Y-76688482D01*
X116012882Y-76706842D01*
X115980389Y-76723398D01*
X115953702Y-76736995D01*
X115883925Y-76750099D01*
X115818140Y-76723398D01*
X115777235Y-76665370D01*
X115770500Y-76624728D01*
X115770500Y-76056500D01*
X115790502Y-75988379D01*
X115844158Y-75941886D01*
X115896500Y-75930500D01*
X116434820Y-75930500D01*
X116478722Y-75921767D01*
X116489040Y-75914873D01*
X116489042Y-75914872D01*
X116518185Y-75895399D01*
X116528504Y-75888504D01*
X116541563Y-75868960D01*
X116554872Y-75849042D01*
X116554873Y-75849040D01*
X116561767Y-75838722D01*
X116570500Y-75794820D01*
X116570500Y-74915963D01*
X117104757Y-74915963D01*
X117121175Y-75111483D01*
X117175258Y-75300091D01*
X117178076Y-75305574D01*
X117262123Y-75469113D01*
X117262126Y-75469117D01*
X117264944Y-75474601D01*
X117386818Y-75628369D01*
X117391511Y-75632363D01*
X117391512Y-75632364D01*
X117516456Y-75738699D01*
X117536238Y-75755535D01*
X117541616Y-75758541D01*
X117541618Y-75758542D01*
X117577932Y-75778837D01*
X117707513Y-75851257D01*
X117813663Y-75885747D01*
X117822436Y-75888598D01*
X117881042Y-75928672D01*
X117908679Y-75994068D01*
X117909500Y-76008431D01*
X117909500Y-76064473D01*
X117889498Y-76132594D01*
X117835842Y-76179087D01*
X117763790Y-76188922D01*
X117720294Y-76182033D01*
X117720292Y-76182033D01*
X117710500Y-76180482D01*
X117594582Y-76198842D01*
X117585748Y-76203343D01*
X117585745Y-76203344D01*
X117543579Y-76224829D01*
X117490011Y-76252123D01*
X117407023Y-76335111D01*
X117379729Y-76388679D01*
X117358244Y-76430845D01*
X117358243Y-76430848D01*
X117353742Y-76439682D01*
X117335382Y-76555600D01*
X117353742Y-76671518D01*
X117358243Y-76680352D01*
X117358244Y-76680355D01*
X117379729Y-76722521D01*
X117407023Y-76776089D01*
X117490011Y-76859077D01*
X117543579Y-76886371D01*
X117585745Y-76907856D01*
X117585748Y-76907857D01*
X117594582Y-76912358D01*
X117710500Y-76930718D01*
X117720292Y-76929167D01*
X117720294Y-76929167D01*
X117763790Y-76922278D01*
X117834201Y-76931378D01*
X117888515Y-76977100D01*
X117909500Y-77046727D01*
X117909500Y-77128988D01*
X117909364Y-77131389D01*
X117905666Y-77141919D01*
X117907235Y-77156020D01*
X117907235Y-77156021D01*
X117908727Y-77169427D01*
X117909212Y-77178169D01*
X117909500Y-77180727D01*
X117909500Y-77187803D01*
X117911073Y-77194697D01*
X117911424Y-77197816D01*
X117912776Y-77205809D01*
X117915783Y-77232833D01*
X117922058Y-77242856D01*
X117924688Y-77254385D01*
X117933530Y-77265481D01*
X117933531Y-77265483D01*
X117941635Y-77275652D01*
X117946490Y-77282508D01*
X117948331Y-77284820D01*
X117952116Y-77290866D01*
X117957162Y-77295912D01*
X117958889Y-77298081D01*
X117964623Y-77304500D01*
X117981695Y-77325924D01*
X117991882Y-77330838D01*
X117993823Y-77332573D01*
X125772188Y-85110938D01*
X125806214Y-85173250D01*
X125801149Y-85244065D01*
X125758602Y-85300901D01*
X125692082Y-85325712D01*
X125687907Y-85325861D01*
X125679200Y-85324482D01*
X125563282Y-85342842D01*
X125554448Y-85347343D01*
X125554445Y-85347344D01*
X125512279Y-85368829D01*
X125458711Y-85396123D01*
X125375723Y-85479111D01*
X125357689Y-85514506D01*
X125326944Y-85574845D01*
X125326943Y-85574848D01*
X125322442Y-85583682D01*
X125304082Y-85699600D01*
X125322442Y-85815518D01*
X125326943Y-85824352D01*
X125326944Y-85824355D01*
X125340359Y-85850683D01*
X125375723Y-85920089D01*
X125458711Y-86003077D01*
X125512279Y-86030371D01*
X125554445Y-86051856D01*
X125554448Y-86051857D01*
X125563282Y-86056358D01*
X125679200Y-86074718D01*
X125795118Y-86056358D01*
X125803952Y-86051857D01*
X125803955Y-86051856D01*
X125846121Y-86030371D01*
X125899689Y-86003077D01*
X125982677Y-85920089D01*
X126018041Y-85850683D01*
X126031456Y-85824355D01*
X126031457Y-85824352D01*
X126035958Y-85815518D01*
X126054318Y-85699600D01*
X126053374Y-85693640D01*
X126072769Y-85627586D01*
X126126425Y-85581093D01*
X126196699Y-85570989D01*
X126261279Y-85600483D01*
X126267862Y-85606612D01*
X127880195Y-87218945D01*
X127914221Y-87281257D01*
X127917100Y-87308040D01*
X127917100Y-89489544D01*
X127897098Y-89557665D01*
X127880195Y-89578639D01*
X127814123Y-89644711D01*
X127804640Y-89663323D01*
X127765344Y-89740445D01*
X127765343Y-89740448D01*
X127760842Y-89749282D01*
X127742482Y-89865200D01*
X127760842Y-89981118D01*
X127765343Y-89989952D01*
X127765344Y-89989955D01*
X127767632Y-89994445D01*
X127814123Y-90085689D01*
X127897111Y-90168677D01*
X127933640Y-90187289D01*
X127992845Y-90217456D01*
X127992848Y-90217457D01*
X128001682Y-90221958D01*
X128117600Y-90240318D01*
X128233518Y-90221958D01*
X128242352Y-90217457D01*
X128242355Y-90217456D01*
X128301560Y-90187289D01*
X128338089Y-90168677D01*
X128421077Y-90085689D01*
X128467568Y-89994445D01*
X128469856Y-89989955D01*
X128469857Y-89989952D01*
X128474358Y-89981118D01*
X128492718Y-89865200D01*
X129774482Y-89865200D01*
X129792842Y-89981118D01*
X129797343Y-89989952D01*
X129797344Y-89989955D01*
X129799632Y-89994445D01*
X129846123Y-90085689D01*
X129929111Y-90168677D01*
X129979412Y-90194306D01*
X130013014Y-90211427D01*
X130064630Y-90260175D01*
X130081696Y-90329089D01*
X130057748Y-90397756D01*
X130056340Y-90399694D01*
X130049323Y-90406711D01*
X130027015Y-90450494D01*
X130000544Y-90502445D01*
X130000543Y-90502448D01*
X129996042Y-90511282D01*
X129977682Y-90627200D01*
X129996042Y-90743118D01*
X130000543Y-90751952D01*
X130000544Y-90751955D01*
X130016935Y-90784124D01*
X130049323Y-90847689D01*
X130132311Y-90930677D01*
X130185879Y-90957971D01*
X130228045Y-90979456D01*
X130228048Y-90979457D01*
X130236882Y-90983958D01*
X130352800Y-91002318D01*
X130468718Y-90983958D01*
X130477552Y-90979457D01*
X130477555Y-90979456D01*
X130519721Y-90957971D01*
X130573289Y-90930677D01*
X130656277Y-90847689D01*
X130688665Y-90784124D01*
X130705056Y-90751955D01*
X130705057Y-90751952D01*
X130709558Y-90743118D01*
X130727918Y-90627200D01*
X130709558Y-90511282D01*
X130705057Y-90502448D01*
X130705056Y-90502445D01*
X130678585Y-90450494D01*
X130656277Y-90406711D01*
X130573289Y-90323723D01*
X130489385Y-90280972D01*
X130437770Y-90232225D01*
X130420704Y-90163311D01*
X130444652Y-90094644D01*
X130446060Y-90092706D01*
X130453077Y-90085689D01*
X130499568Y-89994445D01*
X130501856Y-89989955D01*
X130501857Y-89989952D01*
X130506358Y-89981118D01*
X130524718Y-89865200D01*
X130506358Y-89749282D01*
X130501857Y-89740448D01*
X130501856Y-89740445D01*
X130462560Y-89663323D01*
X130453077Y-89644711D01*
X130370089Y-89561723D01*
X130316521Y-89534429D01*
X130274355Y-89512944D01*
X130274352Y-89512943D01*
X130265518Y-89508442D01*
X130149600Y-89490082D01*
X130033682Y-89508442D01*
X130024848Y-89512943D01*
X130024845Y-89512944D01*
X129982679Y-89534429D01*
X129929111Y-89561723D01*
X129846123Y-89644711D01*
X129836640Y-89663323D01*
X129797344Y-89740445D01*
X129797343Y-89740448D01*
X129792842Y-89749282D01*
X129774482Y-89865200D01*
X128492718Y-89865200D01*
X128474358Y-89749282D01*
X128469857Y-89740448D01*
X128469856Y-89740445D01*
X128430560Y-89663323D01*
X128421077Y-89644711D01*
X128355005Y-89578639D01*
X128320979Y-89516327D01*
X128318100Y-89489544D01*
X128318100Y-88392000D01*
X129825282Y-88392000D01*
X129843642Y-88507918D01*
X129848143Y-88516752D01*
X129848144Y-88516755D01*
X129869629Y-88558921D01*
X129896923Y-88612489D01*
X129979911Y-88695477D01*
X130033479Y-88722771D01*
X130075645Y-88744256D01*
X130075648Y-88744257D01*
X130084482Y-88748758D01*
X130128735Y-88755767D01*
X130192888Y-88786180D01*
X130230415Y-88846448D01*
X130233471Y-88860498D01*
X130250042Y-88965118D01*
X130254543Y-88973952D01*
X130254544Y-88973955D01*
X130276029Y-89016121D01*
X130303323Y-89069689D01*
X130386311Y-89152677D01*
X130439879Y-89179971D01*
X130482045Y-89201456D01*
X130482048Y-89201457D01*
X130490882Y-89205958D01*
X130606800Y-89224318D01*
X130722718Y-89205958D01*
X130731552Y-89201457D01*
X130731555Y-89201456D01*
X130773721Y-89179971D01*
X130827289Y-89152677D01*
X130910277Y-89069689D01*
X130937571Y-89016121D01*
X130959056Y-88973955D01*
X130959057Y-88973952D01*
X130963558Y-88965118D01*
X130981918Y-88849200D01*
X130963558Y-88733282D01*
X130959057Y-88724448D01*
X130959056Y-88724445D01*
X130921391Y-88650524D01*
X130910277Y-88628711D01*
X130827289Y-88545723D01*
X130773721Y-88518429D01*
X130731555Y-88496944D01*
X130731552Y-88496943D01*
X130722718Y-88492442D01*
X130678465Y-88485433D01*
X130614312Y-88455020D01*
X130576785Y-88394752D01*
X130573727Y-88380695D01*
X130564734Y-88323911D01*
X130557158Y-88276082D01*
X130552657Y-88267248D01*
X130552656Y-88267245D01*
X130514991Y-88193324D01*
X130503877Y-88171511D01*
X130420889Y-88088523D01*
X130367321Y-88061229D01*
X130325155Y-88039744D01*
X130325152Y-88039743D01*
X130316318Y-88035242D01*
X130200400Y-88016882D01*
X130084482Y-88035242D01*
X130075648Y-88039743D01*
X130075645Y-88039744D01*
X130033479Y-88061229D01*
X129979911Y-88088523D01*
X129896923Y-88171511D01*
X129885809Y-88193324D01*
X129848144Y-88267245D01*
X129848143Y-88267248D01*
X129843642Y-88276082D01*
X129825282Y-88392000D01*
X128318100Y-88392000D01*
X128318100Y-87209012D01*
X128318236Y-87206611D01*
X128321934Y-87196081D01*
X128318873Y-87168573D01*
X128318388Y-87159831D01*
X128318100Y-87157273D01*
X128318100Y-87150197D01*
X128316527Y-87143303D01*
X128316176Y-87140184D01*
X128314824Y-87132191D01*
X128313386Y-87119270D01*
X128311817Y-87105167D01*
X128305542Y-87095144D01*
X128302912Y-87083615D01*
X128294070Y-87072519D01*
X128294069Y-87072517D01*
X128285965Y-87062348D01*
X128281110Y-87055492D01*
X128279269Y-87053180D01*
X128275484Y-87047134D01*
X128270438Y-87042088D01*
X128268711Y-87039919D01*
X128262977Y-87033500D01*
X128254748Y-87023173D01*
X128254747Y-87023173D01*
X128245905Y-87012076D01*
X128235718Y-87007162D01*
X128233777Y-87005427D01*
X127588350Y-86360000D01*
X129614384Y-86360000D01*
X129632744Y-86475918D01*
X129637245Y-86484752D01*
X129637246Y-86484755D01*
X129647720Y-86505311D01*
X129686025Y-86580489D01*
X129769013Y-86663477D01*
X129822581Y-86690771D01*
X129864747Y-86712256D01*
X129864750Y-86712257D01*
X129873584Y-86716758D01*
X129989502Y-86735118D01*
X130105420Y-86716758D01*
X130114254Y-86712257D01*
X130114257Y-86712256D01*
X130156423Y-86690771D01*
X130209991Y-86663477D01*
X130292979Y-86580489D01*
X130331284Y-86505311D01*
X130341758Y-86484755D01*
X130341759Y-86484752D01*
X130346260Y-86475918D01*
X130364620Y-86360000D01*
X130346260Y-86244082D01*
X130341759Y-86235248D01*
X130341758Y-86235245D01*
X130320273Y-86193079D01*
X130292979Y-86139511D01*
X130209991Y-86056523D01*
X130156423Y-86029229D01*
X130114257Y-86007744D01*
X130114254Y-86007743D01*
X130105420Y-86003242D01*
X129989502Y-85984882D01*
X129873584Y-86003242D01*
X129864750Y-86007743D01*
X129864747Y-86007744D01*
X129822581Y-86029229D01*
X129769013Y-86056523D01*
X129686025Y-86139511D01*
X129658731Y-86193079D01*
X129637246Y-86235245D01*
X129637245Y-86235248D01*
X129632744Y-86244082D01*
X129614384Y-86360000D01*
X127588350Y-86360000D01*
X125708750Y-84480400D01*
X126421682Y-84480400D01*
X126440042Y-84596318D01*
X126444543Y-84605152D01*
X126444544Y-84605155D01*
X126446832Y-84609645D01*
X126493323Y-84700889D01*
X126576311Y-84783877D01*
X126622519Y-84807421D01*
X126672045Y-84832656D01*
X126672048Y-84832657D01*
X126680882Y-84837158D01*
X126796800Y-84855518D01*
X126912718Y-84837158D01*
X126925898Y-84830443D01*
X126995673Y-84817337D01*
X127061458Y-84844035D01*
X127100250Y-84899903D01*
X127100442Y-84901118D01*
X127153723Y-85005689D01*
X127236711Y-85088677D01*
X127280401Y-85110938D01*
X127332445Y-85137456D01*
X127332448Y-85137457D01*
X127341282Y-85141958D01*
X127447408Y-85158767D01*
X127457200Y-85160318D01*
X127466992Y-85158767D01*
X127476911Y-85158767D01*
X127476911Y-85162760D01*
X127527997Y-85169379D01*
X127582296Y-85215119D01*
X127601708Y-85265000D01*
X127608442Y-85307518D01*
X127612943Y-85316352D01*
X127612944Y-85316355D01*
X127634326Y-85358318D01*
X127661723Y-85412089D01*
X127744711Y-85495077D01*
X127782843Y-85514506D01*
X127840445Y-85543856D01*
X127840448Y-85543857D01*
X127849282Y-85548358D01*
X127965200Y-85566718D01*
X128081118Y-85548358D01*
X128089955Y-85543855D01*
X128099383Y-85540792D01*
X128100622Y-85544606D01*
X128151439Y-85535250D01*
X128217128Y-85562184D01*
X128227514Y-85571480D01*
X128303511Y-85647477D01*
X128357079Y-85674771D01*
X128399245Y-85696256D01*
X128399248Y-85696257D01*
X128408082Y-85700758D01*
X128524000Y-85719118D01*
X128639918Y-85700758D01*
X128648752Y-85696257D01*
X128648755Y-85696256D01*
X128690921Y-85674771D01*
X128744489Y-85647477D01*
X128827477Y-85564489D01*
X128870979Y-85479111D01*
X128876256Y-85468755D01*
X128876257Y-85468752D01*
X128880758Y-85459918D01*
X128899118Y-85344000D01*
X128880758Y-85228082D01*
X128876257Y-85219248D01*
X128876256Y-85219245D01*
X128846231Y-85160318D01*
X128827477Y-85123511D01*
X128793966Y-85090000D01*
X129215682Y-85090000D01*
X129234042Y-85205918D01*
X129238543Y-85214752D01*
X129238544Y-85214755D01*
X129260029Y-85256921D01*
X129287323Y-85310489D01*
X129370311Y-85393477D01*
X129406840Y-85412089D01*
X129466045Y-85442256D01*
X129466048Y-85442257D01*
X129474882Y-85446758D01*
X129590800Y-85465118D01*
X129706718Y-85446758D01*
X129715552Y-85442257D01*
X129715555Y-85442256D01*
X129774760Y-85412089D01*
X129811289Y-85393477D01*
X129894277Y-85310489D01*
X129921571Y-85256921D01*
X129943056Y-85214755D01*
X129943057Y-85214752D01*
X129947558Y-85205918D01*
X129965918Y-85090000D01*
X129954885Y-85020343D01*
X129963984Y-84949934D01*
X130009706Y-84895619D01*
X130077534Y-84874646D01*
X130118270Y-84880800D01*
X130126450Y-84883458D01*
X130135282Y-84887958D01*
X130145072Y-84889509D01*
X130145073Y-84889509D01*
X130241408Y-84904767D01*
X130251200Y-84906318D01*
X130367118Y-84887958D01*
X130375952Y-84883457D01*
X130375955Y-84883456D01*
X130422270Y-84859857D01*
X130471689Y-84834677D01*
X130554677Y-84751689D01*
X130591675Y-84679076D01*
X130603456Y-84655955D01*
X130603457Y-84655952D01*
X130607958Y-84647118D01*
X130626318Y-84531200D01*
X130607958Y-84415282D01*
X130603457Y-84406448D01*
X130603456Y-84406445D01*
X130577572Y-84355645D01*
X130554677Y-84310711D01*
X130471689Y-84227723D01*
X130418121Y-84200429D01*
X130375955Y-84178944D01*
X130375952Y-84178943D01*
X130367118Y-84174442D01*
X130251200Y-84156082D01*
X130135282Y-84174442D01*
X130126448Y-84178943D01*
X130126445Y-84178944D01*
X130084279Y-84200429D01*
X130030711Y-84227723D01*
X129947723Y-84310711D01*
X129924828Y-84355645D01*
X129898944Y-84406445D01*
X129898943Y-84406448D01*
X129894442Y-84415282D01*
X129876082Y-84531200D01*
X129886867Y-84599289D01*
X129887115Y-84600855D01*
X129878016Y-84671266D01*
X129832294Y-84725581D01*
X129764466Y-84746554D01*
X129723730Y-84740400D01*
X129715550Y-84737742D01*
X129706718Y-84733242D01*
X129696928Y-84731691D01*
X129696927Y-84731691D01*
X129600592Y-84716433D01*
X129590800Y-84714882D01*
X129474882Y-84733242D01*
X129466048Y-84737743D01*
X129466045Y-84737744D01*
X129432925Y-84754620D01*
X129370311Y-84786523D01*
X129287323Y-84869511D01*
X129268569Y-84906318D01*
X129238544Y-84965245D01*
X129238543Y-84965248D01*
X129234042Y-84974082D01*
X129215682Y-85090000D01*
X128793966Y-85090000D01*
X128744489Y-85040523D01*
X128676123Y-85005689D01*
X128648755Y-84991744D01*
X128648752Y-84991743D01*
X128639918Y-84987242D01*
X128524000Y-84968882D01*
X128408082Y-84987242D01*
X128399245Y-84991745D01*
X128389817Y-84994808D01*
X128388578Y-84990994D01*
X128337761Y-85000350D01*
X128272072Y-84973416D01*
X128261686Y-84964120D01*
X128185689Y-84888123D01*
X128130213Y-84859857D01*
X128089955Y-84839344D01*
X128089952Y-84839343D01*
X128081118Y-84834842D01*
X127965200Y-84816482D01*
X127955408Y-84818033D01*
X127945489Y-84818033D01*
X127945489Y-84814040D01*
X127894403Y-84807421D01*
X127840104Y-84761681D01*
X127820692Y-84711799D01*
X127820604Y-84711245D01*
X127813958Y-84669282D01*
X127809457Y-84660448D01*
X127809456Y-84660445D01*
X127774148Y-84591150D01*
X127760677Y-84564711D01*
X127677689Y-84481723D01*
X127624121Y-84454429D01*
X127581955Y-84432944D01*
X127581952Y-84432943D01*
X127573118Y-84428442D01*
X127457200Y-84410082D01*
X127341282Y-84428442D01*
X127328102Y-84435157D01*
X127258327Y-84448263D01*
X127192542Y-84421565D01*
X127153750Y-84365697D01*
X127153558Y-84364482D01*
X127100277Y-84259911D01*
X127017289Y-84176923D01*
X126963721Y-84149629D01*
X126921555Y-84128144D01*
X126921552Y-84128143D01*
X126912718Y-84123642D01*
X126796800Y-84105282D01*
X126680882Y-84123642D01*
X126672048Y-84128143D01*
X126672045Y-84128144D01*
X126629879Y-84149629D01*
X126576311Y-84176923D01*
X126493323Y-84259911D01*
X126471015Y-84303694D01*
X126444544Y-84355645D01*
X126444543Y-84355648D01*
X126440042Y-84364482D01*
X126421682Y-84480400D01*
X125708750Y-84480400D01*
X124506846Y-83278496D01*
X124472820Y-83216184D01*
X124477885Y-83145369D01*
X124520432Y-83088533D01*
X124538739Y-83077134D01*
X124570049Y-83061181D01*
X124578889Y-83056677D01*
X124661877Y-82973689D01*
X124689171Y-82920121D01*
X124710656Y-82877955D01*
X124710657Y-82877952D01*
X124715158Y-82869118D01*
X124733518Y-82753200D01*
X124715158Y-82637282D01*
X124710657Y-82628448D01*
X124710656Y-82628445D01*
X124689171Y-82586279D01*
X124661877Y-82532711D01*
X124578889Y-82449723D01*
X124525321Y-82422429D01*
X124483155Y-82400944D01*
X124483152Y-82400943D01*
X124474318Y-82396442D01*
X124358400Y-82378082D01*
X124342761Y-82380559D01*
X124272350Y-82371459D01*
X124233955Y-82345205D01*
X122406750Y-80518000D01*
X122916482Y-80518000D01*
X122934842Y-80633918D01*
X122939343Y-80642752D01*
X122939344Y-80642755D01*
X122949181Y-80662060D01*
X122988123Y-80738489D01*
X123071111Y-80821477D01*
X123101809Y-80837118D01*
X123166845Y-80870256D01*
X123166848Y-80870257D01*
X123175682Y-80874758D01*
X123291600Y-80893118D01*
X123407518Y-80874758D01*
X123416352Y-80870257D01*
X123416355Y-80870256D01*
X123481391Y-80837118D01*
X123512089Y-80821477D01*
X123595077Y-80738489D01*
X123634019Y-80662060D01*
X123643856Y-80642755D01*
X123643857Y-80642752D01*
X123648358Y-80633918D01*
X123666718Y-80518000D01*
X123648358Y-80402082D01*
X123643857Y-80393248D01*
X123643856Y-80393245D01*
X123629770Y-80365600D01*
X124999282Y-80365600D01*
X125017642Y-80481518D01*
X125022143Y-80490352D01*
X125022144Y-80490355D01*
X125043629Y-80532521D01*
X125070923Y-80586089D01*
X125153911Y-80669077D01*
X125207479Y-80696371D01*
X125249645Y-80717856D01*
X125249648Y-80717857D01*
X125258482Y-80722358D01*
X125374400Y-80740718D01*
X125490318Y-80722358D01*
X125492591Y-80721200D01*
X127590082Y-80721200D01*
X127608442Y-80837118D01*
X127612943Y-80845952D01*
X127612944Y-80845955D01*
X127634429Y-80888121D01*
X127661723Y-80941689D01*
X127744711Y-81024677D01*
X127798279Y-81051971D01*
X127840445Y-81073456D01*
X127840448Y-81073457D01*
X127849282Y-81077958D01*
X127965200Y-81096318D01*
X128081118Y-81077958D01*
X128089952Y-81073457D01*
X128089955Y-81073456D01*
X128132121Y-81051971D01*
X128185689Y-81024677D01*
X128268677Y-80941689D01*
X128295971Y-80888121D01*
X128317456Y-80845955D01*
X128317457Y-80845952D01*
X128321958Y-80837118D01*
X128340318Y-80721200D01*
X128321958Y-80605282D01*
X128317457Y-80596448D01*
X128317456Y-80596445D01*
X128277486Y-80518000D01*
X128268677Y-80500711D01*
X128185689Y-80417723D01*
X128132121Y-80390429D01*
X128089955Y-80368944D01*
X128089952Y-80368943D01*
X128081118Y-80364442D01*
X127965200Y-80346082D01*
X127849282Y-80364442D01*
X127840448Y-80368943D01*
X127840445Y-80368944D01*
X127798279Y-80390429D01*
X127744711Y-80417723D01*
X127661723Y-80500711D01*
X127652914Y-80518000D01*
X127612944Y-80596445D01*
X127612943Y-80596448D01*
X127608442Y-80605282D01*
X127590082Y-80721200D01*
X125492591Y-80721200D01*
X125499152Y-80717857D01*
X125499155Y-80717856D01*
X125541321Y-80696371D01*
X125594889Y-80669077D01*
X125677877Y-80586089D01*
X125705171Y-80532521D01*
X125726656Y-80490355D01*
X125726657Y-80490352D01*
X125731158Y-80481518D01*
X125749518Y-80365600D01*
X125731158Y-80249682D01*
X125726657Y-80240848D01*
X125726656Y-80240845D01*
X125705171Y-80198679D01*
X125677877Y-80145111D01*
X125594889Y-80062123D01*
X125541321Y-80034829D01*
X125499155Y-80013344D01*
X125499152Y-80013343D01*
X125490318Y-80008842D01*
X125374400Y-79990482D01*
X125258482Y-80008842D01*
X125249648Y-80013343D01*
X125249645Y-80013344D01*
X125207479Y-80034829D01*
X125153911Y-80062123D01*
X125070923Y-80145111D01*
X125043629Y-80198679D01*
X125022144Y-80240845D01*
X125022143Y-80240848D01*
X125017642Y-80249682D01*
X124999282Y-80365600D01*
X123629770Y-80365600D01*
X123619825Y-80346082D01*
X123595077Y-80297511D01*
X123512089Y-80214523D01*
X123458521Y-80187229D01*
X123416355Y-80165744D01*
X123416352Y-80165743D01*
X123407518Y-80161242D01*
X123291600Y-80142882D01*
X123175682Y-80161242D01*
X123166848Y-80165743D01*
X123166845Y-80165744D01*
X123124679Y-80187229D01*
X123071111Y-80214523D01*
X122988123Y-80297511D01*
X122963375Y-80346082D01*
X122939344Y-80393245D01*
X122939343Y-80393248D01*
X122934842Y-80402082D01*
X122916482Y-80518000D01*
X122406750Y-80518000D01*
X121205150Y-79316400D01*
X126320082Y-79316400D01*
X126338442Y-79432318D01*
X126342943Y-79441152D01*
X126342944Y-79441155D01*
X126364429Y-79483321D01*
X126391723Y-79536889D01*
X126474711Y-79619877D01*
X126528279Y-79647171D01*
X126570445Y-79668656D01*
X126570448Y-79668657D01*
X126579282Y-79673158D01*
X126695200Y-79691518D01*
X126811118Y-79673158D01*
X126819952Y-79668657D01*
X126819955Y-79668656D01*
X126862121Y-79647171D01*
X126915689Y-79619877D01*
X126998677Y-79536889D01*
X127025971Y-79483321D01*
X127047456Y-79441155D01*
X127047457Y-79441152D01*
X127051958Y-79432318D01*
X127070318Y-79316400D01*
X127051958Y-79200482D01*
X127047457Y-79191648D01*
X127047456Y-79191645D01*
X127007095Y-79112433D01*
X126998677Y-79095911D01*
X126915689Y-79012923D01*
X126861045Y-78985081D01*
X126819955Y-78964144D01*
X126819952Y-78964143D01*
X126811118Y-78959642D01*
X126695200Y-78941282D01*
X126579282Y-78959642D01*
X126570448Y-78964143D01*
X126570445Y-78964144D01*
X126529355Y-78985081D01*
X126474711Y-79012923D01*
X126391723Y-79095911D01*
X126383305Y-79112433D01*
X126342944Y-79191645D01*
X126342943Y-79191648D01*
X126338442Y-79200482D01*
X126320082Y-79316400D01*
X121205150Y-79316400D01*
X120887405Y-78998655D01*
X120853379Y-78936343D01*
X120850500Y-78909560D01*
X120850500Y-76008468D01*
X120870502Y-75940347D01*
X120924158Y-75893854D01*
X120942602Y-75887114D01*
X121013556Y-75867303D01*
X121188689Y-75778837D01*
X121218515Y-75755535D01*
X121338453Y-75661829D01*
X121343303Y-75658040D01*
X121373084Y-75623539D01*
X121467485Y-75514173D01*
X121467485Y-75514172D01*
X121471509Y-75509511D01*
X121568425Y-75338909D01*
X121630358Y-75152732D01*
X121654949Y-74958071D01*
X121655341Y-74930000D01*
X121653965Y-74915963D01*
X122184757Y-74915963D01*
X122201175Y-75111483D01*
X122255258Y-75300091D01*
X122258076Y-75305574D01*
X122342123Y-75469113D01*
X122342126Y-75469117D01*
X122344944Y-75474601D01*
X122466818Y-75628369D01*
X122471511Y-75632363D01*
X122471512Y-75632364D01*
X122596456Y-75738699D01*
X122616238Y-75755535D01*
X122621616Y-75758541D01*
X122621618Y-75758542D01*
X122657932Y-75778837D01*
X122787513Y-75851257D01*
X122974118Y-75911889D01*
X123168946Y-75935121D01*
X123175081Y-75934649D01*
X123175083Y-75934649D01*
X123358434Y-75920541D01*
X123358438Y-75920540D01*
X123364576Y-75920068D01*
X123553556Y-75867303D01*
X123728689Y-75778837D01*
X123758515Y-75755535D01*
X123878453Y-75661829D01*
X123883303Y-75658040D01*
X123913084Y-75623539D01*
X124007485Y-75514173D01*
X124007485Y-75514172D01*
X124011509Y-75509511D01*
X124108425Y-75338909D01*
X124170358Y-75152732D01*
X124194949Y-74958071D01*
X124195341Y-74930000D01*
X124193965Y-74915963D01*
X124724757Y-74915963D01*
X124741175Y-75111483D01*
X124795258Y-75300091D01*
X124798076Y-75305574D01*
X124882123Y-75469113D01*
X124882126Y-75469117D01*
X124884944Y-75474601D01*
X125006818Y-75628369D01*
X125011511Y-75632363D01*
X125011512Y-75632364D01*
X125136456Y-75738699D01*
X125156238Y-75755535D01*
X125161616Y-75758541D01*
X125161618Y-75758542D01*
X125197932Y-75778837D01*
X125327513Y-75851257D01*
X125514118Y-75911889D01*
X125708946Y-75935121D01*
X125715081Y-75934649D01*
X125715083Y-75934649D01*
X125898434Y-75920541D01*
X125898438Y-75920540D01*
X125904576Y-75920068D01*
X126093556Y-75867303D01*
X126268689Y-75778837D01*
X126298515Y-75755535D01*
X126418453Y-75661829D01*
X126423303Y-75658040D01*
X126453084Y-75623539D01*
X126547485Y-75514173D01*
X126547485Y-75514172D01*
X126551509Y-75509511D01*
X126648425Y-75338909D01*
X126710358Y-75152732D01*
X126734949Y-74958071D01*
X126735341Y-74930000D01*
X126716194Y-74734728D01*
X126714413Y-74728829D01*
X126714412Y-74728824D01*
X126661265Y-74552793D01*
X126659484Y-74546894D01*
X126567370Y-74373653D01*
X126443361Y-74221602D01*
X126292180Y-74096535D01*
X126119585Y-74003213D01*
X126017124Y-73971496D01*
X125938039Y-73947015D01*
X125938036Y-73947014D01*
X125932152Y-73945193D01*
X125926027Y-73944549D01*
X125926026Y-73944549D01*
X125743147Y-73925327D01*
X125743146Y-73925327D01*
X125737019Y-73924683D01*
X125614733Y-73935812D01*
X125547759Y-73941907D01*
X125547758Y-73941907D01*
X125541618Y-73942466D01*
X125535704Y-73944207D01*
X125535702Y-73944207D01*
X125466410Y-73964601D01*
X125353393Y-73997864D01*
X125347928Y-74000721D01*
X125184972Y-74085912D01*
X125184968Y-74085915D01*
X125179512Y-74088767D01*
X125174712Y-74092627D01*
X125174711Y-74092627D01*
X125161902Y-74102926D01*
X125026600Y-74211711D01*
X124900480Y-74362016D01*
X124897516Y-74367408D01*
X124897513Y-74367412D01*
X124849481Y-74454783D01*
X124805956Y-74533954D01*
X124746628Y-74720978D01*
X124724757Y-74915963D01*
X124193965Y-74915963D01*
X124176194Y-74734728D01*
X124174413Y-74728829D01*
X124174412Y-74728824D01*
X124121265Y-74552793D01*
X124119484Y-74546894D01*
X124027370Y-74373653D01*
X123903361Y-74221602D01*
X123752180Y-74096535D01*
X123579585Y-74003213D01*
X123477124Y-73971496D01*
X123398039Y-73947015D01*
X123398036Y-73947014D01*
X123392152Y-73945193D01*
X123386027Y-73944549D01*
X123386026Y-73944549D01*
X123203147Y-73925327D01*
X123203146Y-73925327D01*
X123197019Y-73924683D01*
X123074733Y-73935812D01*
X123007759Y-73941907D01*
X123007758Y-73941907D01*
X123001618Y-73942466D01*
X122995704Y-73944207D01*
X122995702Y-73944207D01*
X122926410Y-73964601D01*
X122813393Y-73997864D01*
X122807928Y-74000721D01*
X122644972Y-74085912D01*
X122644968Y-74085915D01*
X122639512Y-74088767D01*
X122634712Y-74092627D01*
X122634711Y-74092627D01*
X122621902Y-74102926D01*
X122486600Y-74211711D01*
X122360480Y-74362016D01*
X122357516Y-74367408D01*
X122357513Y-74367412D01*
X122309481Y-74454783D01*
X122265956Y-74533954D01*
X122206628Y-74720978D01*
X122184757Y-74915963D01*
X121653965Y-74915963D01*
X121636194Y-74734728D01*
X121634413Y-74728829D01*
X121634412Y-74728824D01*
X121581265Y-74552793D01*
X121579484Y-74546894D01*
X121487370Y-74373653D01*
X121363361Y-74221602D01*
X121212180Y-74096535D01*
X121039585Y-74003213D01*
X120937124Y-73971496D01*
X120858039Y-73947015D01*
X120858036Y-73947014D01*
X120852152Y-73945193D01*
X120846027Y-73944549D01*
X120846026Y-73944549D01*
X120663147Y-73925327D01*
X120663146Y-73925327D01*
X120657019Y-73924683D01*
X120534733Y-73935812D01*
X120467759Y-73941907D01*
X120467758Y-73941907D01*
X120461618Y-73942466D01*
X120455704Y-73944207D01*
X120455702Y-73944207D01*
X120386410Y-73964601D01*
X120273393Y-73997864D01*
X120267928Y-74000721D01*
X120104972Y-74085912D01*
X120104968Y-74085915D01*
X120099512Y-74088767D01*
X120094712Y-74092627D01*
X120094711Y-74092627D01*
X120081902Y-74102926D01*
X119946600Y-74211711D01*
X119820480Y-74362016D01*
X119817516Y-74367408D01*
X119817513Y-74367412D01*
X119769481Y-74454783D01*
X119725956Y-74533954D01*
X119666628Y-74720978D01*
X119644757Y-74915963D01*
X119661175Y-75111483D01*
X119715258Y-75300091D01*
X119718076Y-75305574D01*
X119802123Y-75469113D01*
X119802126Y-75469117D01*
X119804944Y-75474601D01*
X119926818Y-75628369D01*
X119931511Y-75632363D01*
X119931512Y-75632364D01*
X120056456Y-75738699D01*
X120076238Y-75755535D01*
X120081616Y-75758541D01*
X120081618Y-75758542D01*
X120117932Y-75778837D01*
X120247513Y-75851257D01*
X120353663Y-75885747D01*
X120362436Y-75888598D01*
X120421042Y-75928672D01*
X120448679Y-75994068D01*
X120449500Y-76008431D01*
X120449500Y-78916960D01*
X120429498Y-78985081D01*
X120375842Y-79031574D01*
X120305568Y-79041678D01*
X120240988Y-79012184D01*
X120234405Y-79006055D01*
X118347405Y-77119055D01*
X118313379Y-77056743D01*
X118310500Y-77029960D01*
X118310500Y-76008468D01*
X118330502Y-75940347D01*
X118384158Y-75893854D01*
X118402602Y-75887114D01*
X118473556Y-75867303D01*
X118648689Y-75778837D01*
X118678515Y-75755535D01*
X118798453Y-75661829D01*
X118803303Y-75658040D01*
X118833084Y-75623539D01*
X118927485Y-75514173D01*
X118927485Y-75514172D01*
X118931509Y-75509511D01*
X119028425Y-75338909D01*
X119090358Y-75152732D01*
X119114949Y-74958071D01*
X119115341Y-74930000D01*
X119096194Y-74734728D01*
X119094413Y-74728829D01*
X119094412Y-74728824D01*
X119041265Y-74552793D01*
X119039484Y-74546894D01*
X118947370Y-74373653D01*
X118823361Y-74221602D01*
X118672180Y-74096535D01*
X118499585Y-74003213D01*
X118397124Y-73971496D01*
X118318039Y-73947015D01*
X118318036Y-73947014D01*
X118312152Y-73945193D01*
X118306027Y-73944549D01*
X118306026Y-73944549D01*
X118123147Y-73925327D01*
X118123146Y-73925327D01*
X118117019Y-73924683D01*
X117994733Y-73935812D01*
X117927759Y-73941907D01*
X117927758Y-73941907D01*
X117921618Y-73942466D01*
X117915704Y-73944207D01*
X117915702Y-73944207D01*
X117846410Y-73964601D01*
X117733393Y-73997864D01*
X117727928Y-74000721D01*
X117564972Y-74085912D01*
X117564968Y-74085915D01*
X117559512Y-74088767D01*
X117554712Y-74092627D01*
X117554711Y-74092627D01*
X117541902Y-74102926D01*
X117406600Y-74211711D01*
X117280480Y-74362016D01*
X117277516Y-74367408D01*
X117277513Y-74367412D01*
X117229481Y-74454783D01*
X117185956Y-74533954D01*
X117126628Y-74720978D01*
X117104757Y-74915963D01*
X116570500Y-74915963D01*
X116570500Y-74065180D01*
X116561767Y-74021278D01*
X116554873Y-74010960D01*
X116554872Y-74010958D01*
X116535399Y-73981815D01*
X116528504Y-73971496D01*
X116518185Y-73964601D01*
X116489042Y-73945128D01*
X116489040Y-73945127D01*
X116478722Y-73938233D01*
X116434820Y-73929500D01*
X114705180Y-73929500D01*
X114661278Y-73938233D01*
X114650960Y-73945127D01*
X114650958Y-73945128D01*
X114621815Y-73964601D01*
X114611496Y-73971496D01*
X114604601Y-73981815D01*
X114585128Y-74010958D01*
X114585127Y-74010960D01*
X114578233Y-74021278D01*
X114569500Y-74065180D01*
X114569500Y-75794820D01*
X114046000Y-75794820D01*
X114046000Y-73786000D01*
X114066002Y-73717879D01*
X114119658Y-73671386D01*
X114172000Y-73660000D01*
X129861943Y-73660000D01*
X129930064Y-73680002D01*
G37*
%TD.AperFunction*%
%TD*%
M02*
