%TF.GenerationSoftware,KiCad,Pcbnew,(6.0.0)*%
%TF.CreationDate,2022-04-20T12:25:39-04:00*%
%TF.ProjectId,7_seg,375f7365-672e-46b6-9963-61645f706362,rev?*%
%TF.SameCoordinates,Original*%
%TF.FileFunction,Copper,L3,Inr*%
%TF.FilePolarity,Positive*%
%FSLAX46Y46*%
G04 Gerber Fmt 4.6, Leading zero omitted, Abs format (unit mm)*
G04 Created by KiCad (PCBNEW (6.0.0)) date 2022-04-20 12:25:39*
%MOMM*%
%LPD*%
G01*
G04 APERTURE LIST*
%TA.AperFunction,ComponentPad*%
%ADD10O,1.700000X1.700000*%
%TD*%
%TA.AperFunction,ComponentPad*%
%ADD11R,1.700000X1.700000*%
%TD*%
%TA.AperFunction,ViaPad*%
%ADD12C,0.400000*%
%TD*%
%TA.AperFunction,Conductor*%
%ADD13C,0.100000*%
%TD*%
G04 APERTURE END LIST*
D10*
%TO.N,GND*%
%TO.C,J1*%
X130810000Y-74930000D03*
%TO.N,VCC*%
X128270000Y-74930000D03*
%TO.N,SEG_IN2*%
X125730000Y-74930000D03*
%TO.N,SEG_IN1*%
X123190000Y-74930000D03*
%TO.N,SEG_IN0*%
X120650000Y-74930000D03*
%TO.N,SEG_IN1_ENABLE*%
X118110000Y-74930000D03*
D11*
%TO.N,SEG_IN2_ENABLE*%
X115570000Y-74930000D03*
%TD*%
D12*
%TO.N,SEG_IN2*%
X120548400Y-90119200D03*
%TO.N,GND*%
X128676400Y-90119200D03*
X126085600Y-89408000D03*
X118211600Y-89763600D03*
X115976400Y-88442800D03*
%TO.N,SEG_E*%
X123958900Y-84378800D03*
%TO.N,SEG_D*%
X129989502Y-86360000D03*
%TO.N,SEG_IN0*%
X130200400Y-88392000D03*
%TO.N,SEG_IN1*%
X130606800Y-88849200D03*
%TO.N,SEG_F*%
X126695200Y-79316400D03*
X117710500Y-76555600D03*
%TO.N,SEG_G*%
X125374400Y-80365600D03*
X116128800Y-77063600D03*
%TO.N,SEG_IN2*%
X130149600Y-89865200D03*
%TO.N,SEG_IN1*%
X120396000Y-89560400D03*
X123291600Y-80518000D03*
%TO.N,SEG_IN0*%
X120700800Y-88544400D03*
X124358400Y-82753200D03*
X121666000Y-88087200D03*
%TO.N,SEG_IN1_ENABLE*%
X128117600Y-89865200D03*
%TO.N,SEG_IN2_ENABLE*%
X117259500Y-89966800D03*
%TO.N,SEG_B*%
X130251200Y-84531200D03*
%TO.N,SEG_A*%
X129590800Y-85090000D03*
%TO.N,Net-(DS2-Pad8)*%
X127965200Y-80721200D03*
%TO.N,SEG_F*%
X126796800Y-84480400D03*
%TO.N,SEG_G*%
X125679200Y-85699600D03*
%TO.N,SEG_DP*%
X130352800Y-90627200D03*
%TO.N,SEG_C*%
X128524000Y-85344000D03*
%TO.N,Net-(DS2-Pad3)*%
X127863600Y-94640400D03*
%TO.N,SEG_D*%
X127965200Y-85191600D03*
%TO.N,SEG_E*%
X127457200Y-84785200D03*
%TO.N,SEG_DP*%
X120040400Y-90678000D03*
%TO.N,SEG_C*%
X118364000Y-85242400D03*
%TO.N,Net-(DS1-Pad3)*%
X117602000Y-94691200D03*
%TO.N,SEG_D*%
X117759500Y-85242400D03*
%TO.N,SEG_E*%
X116840000Y-84379502D03*
%TO.N,SEG_B*%
X120396000Y-84836000D03*
%TO.N,SEG_A*%
X119380000Y-85090000D03*
%TO.N,Net-(DS1-Pad8)*%
X118110000Y-80010000D03*
%TO.N,SEG_G*%
X115570000Y-86360000D03*
%TO.N,SEG_F*%
X116332000Y-85090000D03*
%TD*%
D13*
%TO.N,SEG_IN2*%
X127609600Y-89357200D02*
X129641600Y-89357200D01*
X126847600Y-90119200D02*
X127609600Y-89357200D01*
X120548400Y-90119200D02*
X126847600Y-90119200D01*
X129641600Y-89357200D02*
X130149600Y-89865200D01*
%TO.N,SEG_E*%
X123958198Y-84379502D02*
X123958900Y-84378800D01*
X116840000Y-84379502D02*
X123958198Y-84379502D01*
%TO.N,SEG_D*%
X129227502Y-87122000D02*
X129989502Y-86360000D01*
X128930400Y-87122000D02*
X129227502Y-87122000D01*
X119639100Y-87122000D02*
X128930400Y-87122000D01*
X117759500Y-85242400D02*
X119639100Y-87122000D01*
%TO.N,SEG_IN0*%
X130200400Y-88392000D02*
X121970800Y-88392000D01*
X121970800Y-88392000D02*
X121666000Y-88087200D01*
%TO.N,SEG_IN1*%
X121107200Y-88849200D02*
X130606800Y-88849200D01*
X120396000Y-89560400D02*
X121107200Y-88849200D01*
%TO.N,SEG_DP*%
X130302000Y-90678000D02*
X130352800Y-90627200D01*
X120040400Y-90678000D02*
X130302000Y-90678000D01*
%TO.N,SEG_B*%
X129235200Y-83515200D02*
X130251200Y-84531200D01*
X126034800Y-83515200D02*
X129235200Y-83515200D01*
X124714000Y-84836000D02*
X126034800Y-83515200D01*
X120396000Y-84836000D02*
X124714000Y-84836000D01*
%TO.N,SEG_A*%
X129590800Y-85801200D02*
X129590800Y-85090000D01*
X120853200Y-86563200D02*
X128828800Y-86563200D01*
X119380000Y-85090000D02*
X120853200Y-86563200D01*
X128828800Y-86563200D02*
X129590800Y-85801200D01*
%TO.N,SEG_F*%
X123934400Y-76555600D02*
X126695200Y-79316400D01*
X117710500Y-76555600D02*
X123934400Y-76555600D01*
%TO.N,SEG_G*%
X122072400Y-77063600D02*
X125374400Y-80365600D01*
X116128800Y-77063600D02*
X122072400Y-77063600D01*
%TD*%
M02*
